:SAMPLES-PER-SECOND 30
:FULLY-SPECIFIED
:DEGREES
189
root  -1.48015 40.1602 -30.6277 -123.161 -85.3661 123.578
RightUpLeg  -6.75053 -19.7135 -16.2125
RightLeg  13.5577 -12.8449 -3.02925
RightFoot  8.34201 -2.49093 14.6089
RightToes  -1.33073e-015 0 -3.6325e-017
Spine  15.2848 1.48276 1.37329
Spine1  -12.0616 2.11874 -7.04036
HEad  -4.01892 10.0238 -3.31685
LeftShoulder1  0.651112 0.948766 -18.8682
LeftArm  -49.127 14.0439 -28.9566
LeftForeArm  57.1174 -77.692 -104.067
LeftHand  -0.365559 4.15205 34.1974
RightShoulder  0.6624 -0.644738 16.6053
RightArm  -62.2805 -21.5502 31.5028
RightForeArm  80.6232 76.1554 122.042
RightHand  -2.88552 5.70362 -29.5615
LeftUpLeg  -12.2397 20.2065 9.60618
LeftLeg  32.2213 19.0816 12.9518
LeftFoot  2.90958 0.629081 -5.07724
LeftToes  -4.0021e-011 8.38769e-011 -3.99229e-011
190
root  -1.25641 39.5869 -30.1573 -118.835 -85.7916 118.908
RightUpLeg  -9.46037 -23.1545 -16.619
RightLeg  19.1282 -9.85335 -4.02416
RightFoot  5.33326 -2.06467 14.2867
RightToes  -1.33073e-015 0 -3.6325e-017
Spine  17.4772 1.2849 1.70534
Spine1  -13.6657 1.90871 -7.23205
HEad  -3.56196 9.29057 -3.23624
LeftShoulder1  0.202544 2.50825 -13.3148
LeftArm  -50.3193 7.06535 -24.4757
LeftForeArm  58.3573 -77.7168 -104.181
LeftHand  -0.523573 3.51104 32.0196
RightShoulder  0.276263 -1.99213 11.1705
RightArm  -64.0473 -16.2201 25.3818
RightForeArm  72.1859 76.661 117.092
RightHand  -2.70974 3.25632 -35.3807
LeftUpLeg  -12.9836 18.8178 11.0664
LeftLeg  31.4608 16.4853 10.9283
LeftFoot  1.31345 0.701483 -6.4648
LeftToes  -4.0021e-011 8.38769e-011 -3.99229e-011
191
root  -0.900179 38.3997 -29.6611 -115.717 -86.2797 115.416
RightUpLeg  -14.8585 -24.7777 -17.4518
RightLeg  30.0762 -7.46154 -4.85374
RightFoot  -0.0922251 -1.49574 15.1485
RightToes  -1.33073e-015 0 -3.6325e-017
Spine  21.242 1.09811 2.25002
Spine1  -17.0512 1.67559 -7.57301
HEad  -3.3614 8.25562 -3.21031
LeftShoulder1  -0.0364522 3.75996 -6.24058
LeftArm  -53.6948 -1.06334 -18.2829
LeftForeArm  41.7196 -78.0414 -88.1022
LeftHand  -0.611662 3.18111 31.7278
RightShoulder  -0.00603469 -3.56993 4.49302
RightArm  -66.7906 -10.3296 18.6569
RightForeArm  50.9839 77.9058 98.2981
RightHand  -2.75859 3.78568 -33.9913
LeftUpLeg  -15.6561 21.3485 12.2412
LeftLeg  34.4801 9.6403 7.36779
LeftFoot  -1.7128 0.929405 -10.9281
LeftToes  -4.0021e-011 8.38769e-011 -3.99229e-011
192
root  -0.427022 36.6762 -29.1812 -112.543 -86.759 111.476
RightUpLeg  -20.9155 -25.7816 -18.7265
RightLeg  42.5741 -4.63476 -4.82677
RightFoot  -5.16932 -0.924312 16.3166
RightToes  -1.33073e-015 0 -3.6325e-017
Spine  25.3134 0.885263 2.5672
Spine1  -19.3142 1.47991 -8.0539
HEad  -5.72473 7.13702 -3.90063
LeftShoulder1  -0.0923751 4.90387 2.1425
LeftArm  -59.7241 -7.84059 -11.7739
LeftForeArm  9.61835 -75.7429 -57.7365
LeftHand  -0.334002 4.27212 35.0313
RightShoulder  -0.0929702 -5.01374 -2.79948
RightArm  -70.9701 -4.9627 11.6881
RightForeArm  11.4394 76.2515 62.5428
RightHand  -4.04036 6.32267 -38.9745
LeftUpLeg  -19.5326 25.0363 13.1699
LeftLeg  42.0228 4.66699 4.9044
LeftFoot  -6.24754 0.682004 -14.4985
LeftToes  -4.0021e-011 8.38769e-011 -3.99229e-011
193
root  0.106807 34.8238 -28.7079 -97.6808 -87.3665 96.0322
RightUpLeg  -26.0093 -27.1566 -20.0749
RightLeg  52.7627 -2.56741 -4.02824
RightFoot  -9.2548 -0.369491 16.6293
RightToes  -1.33073e-015 0 -3.6325e-017
Spine  28.1826 0.718704 2.08937
Spine1  -18.4063 1.34037 -7.08144
HEad  -11.3102 6.17601 -5.37454
LeftShoulder1  0.029496 6.44035 10.5875
LeftArm  -67.578 -11.5975 -5.63786
LeftForeArm  -16.8853 -67.8725 -32.1281
LeftHand  0.290633 6.16288 39.5833
RightShoulder  -0.0280658 -5.78637 -8.24798
RightArm  -76.3462 -0.957493 1.62495
RightForeArm  -29.1464 66.2449 30.6181
RightHand  -3.80989 3.87062 -45.6594
LeftUpLeg  -24.6167 27.5379 13.6008
LeftLeg  51.8251 1.98631 3.20766
LeftFoot  -13.003 -0.144908 -15.9356
LeftToes  -4.0021e-011 8.38769e-011 -3.99229e-011
194
root  0.496407 33.4715 -28.1911 -61.7657 -87.5654 60.176
RightUpLeg  -28.8779 -29.2304 -21.2419
RightLeg  58.4978 -1.60077 -3.30997
RightFoot  -12.5148 0.0981802 17.3626
RightToes  -1.33073e-015 0 -3.6325e-017
Spine  28.9549 0.707631 1.0616
Spine1  -14.9327 1.19995 -4.3509
HEad  -17.7871 5.23952 -6.48377
LeftShoulder1  0.372671 8.73973 17.7216
LeftArm  -74.7332 -12.9538 -3.14008
LeftForeArm  -28.5568 -59.088 -21.093
LeftHand  0.899863 7.70304 42.2369
RightShoulder  0.0311973 -6.34428 -10.7798
RightArm  -80.4486 0.311574 -8.61724
RightForeArm  -46.9615 52.5107 16.9453
RightHand  -2.83379 1.7472 -43.7868
LeftUpLeg  -29.7556 28.1942 13.1128
LeftLeg  59.7287 0.462844 1.49975
LeftFoot  -19.0653 -0.908666 -15.1383
LeftToes  -4.0021e-011 8.38769e-011 -3.99229e-011
